<svg width="513" height="513" viewBox="0 0 513 513" fill="none" xmlns="http://www.w3.org/2000/svg">
<path fill-rule="evenodd" clip-rule="evenodd" d="M265.425 16.8826C259.537 15.6716 253.463 15.6716 247.575 16.8826C240.769 18.2825 234.685 21.69 229.848 24.399L228.53 25.1354L64.6092 116.203C64.156 116.454 63.6891 116.712 63.2106 116.975C58.0907 119.795 51.6531 123.341 46.7095 128.705C42.4353 133.344 39.2008 138.841 37.2221 144.829C34.9335 151.756 34.9602 159.106 34.9815 164.951C34.9835 165.497 34.9855 166.03 34.9855 166.549V346.354C34.9855 346.873 34.9835 347.406 34.9815 347.952C34.9602 353.797 34.9335 361.147 37.2221 368.073C39.2008 374.062 42.4353 379.559 46.7095 384.197C51.6531 389.562 58.0907 393.108 63.2106 395.928C63.6891 396.191 64.1561 396.449 64.6092 396.7L228.53 487.767L229.848 488.504C234.685 491.213 240.769 494.62 247.575 496.02C253.463 497.231 259.537 497.231 265.425 496.02C272.231 494.62 278.315 491.213 283.152 488.504L284.47 487.767L448.391 396.7C448.591 396.589 448.794 396.477 449 396.363C449.259 396.22 449.522 396.075 449.789 395.928C454.909 393.108 461.347 389.562 466.291 384.197C470.565 379.559 473.799 374.062 475.778 368.073C478.067 361.147 478.04 353.797 478.018 347.952C478.017 347.406 478.015 346.873 478.015 346.354V166.549C478.015 166.03 478.017 165.497 478.018 164.951C478.04 159.106 478.067 151.756 475.778 144.829C473.799 138.841 470.565 133.344 466.291 128.705C461.347 123.341 454.909 119.795 449.789 116.975L449.771 116.965C449.299 116.705 448.838 116.451 448.391 116.203L284.47 25.1354L283.152 24.3989C278.315 21.6899 272.231 18.2825 265.425 16.8826ZM250.045 63.8631C253.402 61.9982 255.116 61.0559 256.394 60.4394L256.5 60.3887L256.606 60.4394C257.884 61.0559 259.598 61.9982 262.955 63.8631L410.25 145.694L256.499 231.11L102.75 145.694L250.045 63.8631ZM79.2884 183.341L234.348 269.485L234.348 440.319L86.1246 357.973C82.5814 356.004 80.7724 354.989 79.5033 354.18L79.3961 354.111L79.3881 353.984C79.2976 352.482 79.2884 350.408 79.2884 346.354V183.341Z" fill="#05A0D1"/>
</svg>
